<svg xmlns="http://www.w3.org/2000/svg" xmlns:svg="http://www.w3.org/2000/svg" id="svg5921" width="48" height="48" version="1.0"><metadata id="metadata16"/><g id="layer1" transform="matrix(0.468275,0,0,0.468275,-5.7626904,-7.4142703)"><g id="g8014" transform="matrix(0.115136,0,0,0.115136,9.7283,21.77356)"><g id="g8518" opacity="1"><path id="rect8018" fill="#ffe680" fill-opacity="1" fill-rule="nonzero" stroke="none" stroke-dashoffset="0" stroke-linecap="butt" stroke-miterlimit="4" stroke-opacity="1" stroke-width=".1" d="M -2512.4524,56.33197 L 3090.4719,56.33197 L 3090.4719,4607.3813 L -2512.4524,4607.3813 L -2512.4524,56.33197 z" transform="matrix(0.1104659,-2.3734892e-2,2.2163258e-2,0.1031513,308.46782,74.820675)"/></g><g id="g8020" transform="matrix(0.5141653,-7.1944682e-2,7.1944682e-2,0.5141653,146.04015,-82.639785)"><path id="path8022" fill="#e0c96f" fill-opacity="1" fill-rule="nonzero" stroke="none" stroke-dasharray="none" stroke-dashoffset="0" stroke-linecap="butt" stroke-miterlimit="4" stroke-opacity="1" stroke-width=".08" d="M 511.14114,441.25315 C 527.3248,533.52772 464.31248,622.82928 370.39916,640.71378 C 276.48584,658.59828 187.23462,598.29322 171.05095,506.01865 C 154.86728,413.74408 217.8796,324.44253 311.79292,306.55803 C 405.70624,288.67353 494.95747,348.97858 511.14114,441.25315 z" opacity="1"/><path id="path8024" fill="#c00000" fill-opacity="1" fill-rule="nonzero" stroke="none" stroke-dasharray="none" stroke-dashoffset="0" stroke-linecap="butt" stroke-miterlimit="4" stroke-opacity="1" stroke-width=".08" d="M 527.8214,393.1416 C 527.8214,461.31268 472.55783,516.57625 404.38675,516.57625 C 336.21567,516.57625 280.9521,461.31268 280.9521,393.1416 C 280.9521,324.97052 336.21567,269.70695 404.38675,269.70695 C 472.55783,269.70695 527.8214,324.97052 527.8214,393.1416 z" opacity="1" transform="matrix(1.2585415,-0.2300055,0.2168789,1.1867072,-248.76141,68.254424)"/><path id="path8026" fill="#b60000" fill-opacity="1" fill-rule="nonzero" stroke="none" stroke-dasharray="none" stroke-dashoffset="0" stroke-linecap="butt" stroke-miterlimit="4" stroke-opacity="1" stroke-width=".1" d="M 358.5625,281.15625 C 348.09597,281.05155 337.43773,281.94729 326.71875,283.90625 C 240.96686,299.57789 183.37901,377.92385 198.15625,458.78125 C 209.70749,521.98673 262.12957,567.92122 325.40625,577.5625 L 357.25,433.6875 L 509.34375,405.875 C 509.14405,404.58166 509.0804,403.29487 508.84375,402 C 495.91366,331.24978 431.82821,281.88918 358.5625,281.15625 z" opacity="1"/><path id="path8028" fill="#750000" fill-opacity="1" fill-rule="nonzero" stroke="none" stroke-dashoffset="0" stroke-linecap="butt" stroke-miterlimit="4" stroke-opacity="1" stroke-width=".1" d="M 294.2107,361.9442 L 282.79367,370.38482 L 261.73414,386.13346 C 253.13706,404.40842 254.3359,423.7989 259.7176,444.39774 C 273.6797,497.83861 313.42636,523.96124 369.50989,517.58957 C 398.21848,514.32797 424.51832,504.67345 440.64696,484.15958 L 469.89512,447.48298 L 294.2107,361.9442 z"/><path id="path8030" fill="#d40000" fill-opacity="1" fill-rule="nonzero" stroke="none" stroke-dasharray="none" stroke-dashoffset="0" stroke-linecap="butt" stroke-miterlimit="4" stroke-opacity="1" stroke-width=".103" d="M 527.8214,393.1416 C 527.8214,461.31268 472.55783,516.57625 404.38675,516.57625 C 336.21567,516.57625 280.9521,461.31268 280.9521,393.1416 C 280.9521,324.97052 336.21567,269.70695 404.38675,269.70695 C 472.55783,269.70695 527.8214,324.97052 527.8214,393.1416 z" opacity="1" transform="matrix(0.9837071,-0.1797787,0.1695165,0.9275553,-78.013985,79.234385)"/><path id="path8032" fill="#e11212" fill-opacity="1" fill-rule="nonzero" stroke="none" stroke-dasharray="none" stroke-dashoffset="0" stroke-linecap="butt" stroke-miterlimit="4" stroke-opacity="1" stroke-width=".103" d="M 527.8214,393.1416 C 527.8214,461.31268 472.55783,516.57625 404.38675,516.57625 C 336.21567,516.57625 280.9521,461.31268 280.9521,393.1416 C 280.9521,324.97052 336.21567,269.70695 404.38675,269.70695 C 472.55783,269.70695 527.8214,324.97052 527.8214,393.1416 z" opacity="1" transform="matrix(0.9837071,-0.1797787,0.1695165,0.9275553,-69.306684,71.273294)"/></g></g></g></svg>